<svg width="32" height="32" viewBox="0 0 32 32" fill="none" xmlns="http://www.w3.org/2000/svg">
<path d="M16 0C18.1217 0 20.1566 0.842854 21.6569 2.34315C23.1571 3.84344 24 5.87827 24 8C24 10.1217 23.1571 12.1566 21.6569 13.6569C20.1566 15.1571 18.1217 16 16 16C13.8783 16 11.8434 15.1571 10.3431 13.6569C8.84285 12.1566 8 10.1217 8 8C8 5.87827 8.84285 3.84344 10.3431 2.34315C11.8434 0.842854 13.8783 0 16 0ZM16 32C16 32 32 32 32 28C32 23.2 24.2 18 16 18C7.8 18 0 23.2 0 28C0 32 16 32 16 32Z" fill="white"/>
</svg>
