<svg width="84" height="84" viewBox="0 0 84 84" xmlns="http://www.w3.org/2000/svg">
    <defs>
        <linearGradient id="gradient" x1="0" y1="0" x2="1" y2="0">
            <stop offset="0%" stop-color="#2AF598" />
            <stop offset="100%" stop-color="#009EFD" />
        </linearGradient>
    </defs>
    <g id="ic:twotone-speed">
        <path id="Vector" d="M71.33 29.9951L67.025 36.4701C69.1011 40.6108 70.1175 45.202 69.9831 49.8321C69.8488 54.4622 68.5678 58.9867 66.255 63.0001H17.745C14.7391 57.7854 13.4935 51.741 14.193 45.7628C14.8924 39.7846 17.4997 34.1909 21.6282 29.8111C25.7567 25.4312 31.1866 22.4982 37.1131 21.447C43.0395 20.3958 49.147 21.2823 54.53 23.9751L61.005 19.6701C54.4127 15.4428 46.5931 13.5486 38.7971 14.2903C31.0011 15.0321 23.6791 18.367 18.0022 23.7616C12.3254 29.1562 8.62177 36.2988 7.48376 44.0469C6.34576 51.795 7.83913 59.7009 11.725 66.5001C12.3358 67.558 13.2128 68.4377 14.2689 69.0517C15.325 69.6657 16.5234 69.9927 17.745 70.0001H66.22C67.4535 70.005 68.6663 69.6838 69.7358 69.0692C70.8052 68.4546 71.6933 67.5683 72.31 66.5001C75.5348 60.9138 77.1532 54.545 76.9864 48.0969C76.8197 41.6488 74.8743 35.3722 71.365 29.9601L71.33 29.9951Z" fill="url(#gradient)"/>
        <path id="Vector_2" d="M37.065 53.935C37.7151 54.5858 38.4871 55.1021 39.3369 55.4544C40.1867 55.8067 41.0976 55.988 42.0175 55.988C42.9374 55.988 43.8483 55.8067 44.6981 55.4544C45.5479 55.1021 46.3199 54.5858 46.97 53.935L66.78 24.22L37.065 44.03C36.4142 44.6801 35.8979 45.4521 35.5456 46.3019C35.1933 47.1517 35.012 48.0626 35.012 48.9825C35.012 49.9024 35.1933 50.8133 35.5456 51.6631C35.8979 52.5128 36.4142 53.2849 37.065 53.935Z" fill="url(#gradient)"/>
    </g>
</svg>
