<svg width="51" height="38" viewBox="0 0 51 38" fill="none" xmlns="http://www.w3.org/2000/svg">
    <defs>
        <linearGradient id="gradient" x1="0" y1="0" x2="1" y2="0">
            <stop offset="0%" stop-color="#2AF598" />
            <stop offset="100%" stop-color="#009EFD" />
        </linearGradient>
    </defs>
    <path d="M3.49997 37.5H48.5C48.9556 37.4986 49.4022 37.3729 49.7917 37.1366C50.1812 36.9002 50.4988 36.5621 50.7105 36.1586C50.9221 35.7552 51.0197 35.3016 50.9927 34.8468C50.9658 34.392 50.8153 33.9532 50.5575 33.5775L28.0575 1.07752C27.125 -0.26998 24.88 -0.26998 23.945 1.07752L1.44497 33.5775C1.18453 33.9524 1.0318 34.3914 1.00338 34.847C0.97496 35.3026 1.07193 35.7572 1.28375 36.1615C1.49558 36.5659 1.81416 36.9044 2.20488 37.1404C2.5956 37.3764 3.04352 37.5007 3.49997 37.5Z" fill="url(#gradient)"/>
</svg>
