<svg width="68" height="84" viewBox="0 0 68 84" fill="none" xmlns="http://www.w3.org/2000/svg">
    <defs>
        <linearGradient id="gradient" x1="0" y1="0" x2="1" y2="0">
            <stop offset="0%" stop-color="#2AF598" />
            <stop offset="100%" stop-color="#009EFD" />
        </linearGradient>
    </defs>
    <path id="Vector" d="M33.6 0C22.0017 0 12.6 9.4017 12.6 21C12.6 32.5983 22.0017 42 33.6 42C45.1983 42 54.6 32.5983 54.6 21C54.6 9.4017 45.1983 0 33.6 0ZM17.85 21C17.85 16.8228 19.5094 12.8168 22.4631 9.86307C25.4168 6.90937 29.4228 5.25 33.6 5.25C37.7772 5.25 41.7832 6.90937 44.7369 9.86307C47.6906 12.8168 49.35 16.8228 49.35 21C49.35 25.1772 47.6906 29.1832 44.7369 32.1369C41.7832 35.0906 37.7772 36.75 33.6 36.75C29.4228 36.75 25.4168 35.0906 22.4631 32.1369C19.5094 29.1832 17.85 25.1772 17.85 21ZM8.925 50.4C6.55831 50.4 4.28852 51.34 2.61481 53.0133C0.941112 54.6866 0.000556869 56.9562 0 59.3229V60.9C0 68.7855 4.0782 74.6907 10.332 78.498C16.485 82.2423 24.7506 84 33.6 84C42.4494 84 50.715 82.2423 56.868 78.498C63.1218 74.6907 67.2 68.7855 67.2 60.9V59.3229C67.2 58.151 66.9691 56.9905 66.5206 55.9078C66.072 54.8251 65.4146 53.8413 64.5858 53.0127C63.757 52.1841 62.7731 51.5269 61.6903 51.0786C60.6075 50.6303 59.4469 50.3997 58.275 50.4H8.925ZM5.25 59.3229C5.25056 58.3486 5.63799 57.4144 6.32712 56.7256C7.01626 56.0369 7.95069 55.65 8.925 55.65H58.275C60.3057 55.65 61.95 57.2943 61.95 59.3229V60.9C61.95 66.6624 59.094 70.9968 54.138 74.0145C49.077 77.0952 41.8572 78.75 33.6 78.75C25.3428 78.75 18.123 77.0952 13.062 74.0145C8.106 70.9968 5.25 66.6645 5.25 60.9V59.3229Z" fill="url(#gradient)"/>
</svg>
