<svg xmlns="http://www.w3.org/2000/svg" data-name="Layer 1" viewBox="0 0 95 118.75" x="0px" y="0px">
    <defs>
        <linearGradient id="gradient" x1="0" y1="0" x2="1" y2="0">
            <stop offset="0%" stop-color="#2AF598" />
            <stop offset="100%" stop-color="#009EFD" />
        </linearGradient>
    </defs>
    <path d="M83.46,42.031C79.2,34.881,73.85,29.252,69.3,26.983a3.378,3.378,0,0,0,.667-2.014c0-.055,0-.11-.006-.164,1.221,1.309,3.58,3.445,5.988,3.445a3.788,3.788,0,0,0,1.742-.418,1.09,1.09,0,0,0-.991-1.942c-1.452.742-3.807-1.062-5.383-2.832a3.3,3.3,0,0,0-2.953-1.215c.938-1.72,2.292-3.2,3.5-3.2a20.107,20.107,0,0,1,2.087.134C76.134,19,78.2,19.2,79.9,16.027A1.09,1.09,0,1,0,77.975,15c-1.007,1.887-1.771,1.81-3.813,1.6a22.219,22.219,0,0,0-2.306-.145,5.71,5.71,0,0,0-4.3,2.624,3.381,3.381,0,0,0-.944-.926c.26-.181.528-.363.8-.549,3.662-2.481,8.678-5.879,3.7-14.146A1.09,1.09,0,0,0,69.806,3c-2.825,1.028-4.16,1.025-4.783.841-.527-.156-.717-.483-1.034-1.094a2.6,2.6,0,0,0-3.513-1.555c-.8.248-1.45.459-2.025.645a10.754,10.754,0,0,1-2.876.728A10.758,10.758,0,0,1,52.7,1.838c-.575-.186-1.227-.4-2.024-.645A2.6,2.6,0,0,0,47.16,2.748c-.317.611-.507.938-1.034,1.094-.622.184-1.958.187-4.783-.841a1.09,1.09,0,0,0-1.306.462c-4.968,8.249-.563,11.655,2.653,14.142.451.348.887.686,1.281,1.022a3.419,3.419,0,0,0-.722,1.1,3.376,3.376,0,0,0-.14,2.179,3.39,3.39,0,0,0-1.255,5.069c-3.287,1.634-7.012,5.028-10.513,9.633a56.661,56.661,0,0,0-9.255,18.146H11.778a3.259,3.259,0,0,0-3.255,3.256v.848H7.675A3.258,3.258,0,0,0,4.42,62.117V90.745A3.258,3.258,0,0,0,7.675,94H58.56a3.258,3.258,0,0,0,3.255-3.255V89.9h.849a3.26,3.26,0,0,0,3.116-2.318c14-2.479,23.15-9.612,24.545-19.179C91.428,60.813,88.926,51.2,83.46,42.031ZM44.024,15.88c-3.006-2.324-5.852-4.524-2.559-10.53,2.336.768,4.028.952,5.279.582A3.775,3.775,0,0,0,49.1,3.75a2.549,2.549,0,0,1,.344-.564,1.148,1.148,0,0,1,.589.089c.785.244,1.43.453,2,.637,3.416,1.106,3.681,1.106,7.1,0,.569-.184,1.213-.393,2-.637a1.784,1.784,0,0,1,.507-.1.294.294,0,0,1,.078.007,2.457,2.457,0,0,1,.348.566,3.777,3.777,0,0,0,2.351,2.182c1.251.37,2.942.186,5.277-.581,3.2,5.918-.053,8.124-3.492,10.454a24.872,24.872,0,0,0-2.447,1.8H46.393c-.1,0-.2,0-.293.014A22.6,22.6,0,0,0,44.024,15.88Zm.565,7.87h.2a1.089,1.089,0,0,0,.759-1.871,1.221,1.221,0,0,1,.848-2.092H64.759a1.221,1.221,0,0,1,.848,2.092,1.089,1.089,0,0,0,.759,1.871h.2a1.219,1.219,0,0,1,0,2.438H44.589a1.219,1.219,0,0,1,0-2.438Zm15.047,67A1.077,1.077,0,0,1,58.56,91.82H7.675A1.077,1.077,0,0,1,6.6,90.745V62.117a1.077,1.077,0,0,1,1.076-1.075h.848v25.6A3.258,3.258,0,0,0,11.778,89.9H59.636Zm4.1-4.1a1.077,1.077,0,0,1-1.075,1.076H11.778A1.077,1.077,0,0,1,10.7,86.641V58.014a1.077,1.077,0,0,1,1.075-1.076H62.664a1.077,1.077,0,0,1,1.075,1.076ZM62.664,54.758H40.944a14.852,14.852,0,1,1,24.975,13.2V58.014A3.259,3.259,0,0,0,62.664,54.758Zm25.5,13.327c-1.236,8.475-9.516,14.868-22.249,17.252v-14.5A17.032,17.032,0,1,0,38.737,54.758H24.355C28.22,42,37.931,30.339,44.236,28.35a3.433,3.433,0,0,0,.353.018H66.563c.115,0,.228-.006.339-.017,4.325,1.356,10.193,7.258,14.686,14.8C86.8,51.9,89.2,60.985,88.168,68.085ZM60.627,64.6A4.437,4.437,0,0,1,56.7,60.673a1.089,1.089,0,0,0-1.083-.975H18.824a1.089,1.089,0,0,0-1.084.975A4.436,4.436,0,0,1,13.815,64.6a1.089,1.089,0,0,0-.975,1.084V78.973a1.09,1.09,0,0,0,.975,1.084,4.436,4.436,0,0,1,3.925,3.925,1.089,1.089,0,0,0,1.084.975h36.8a1.089,1.089,0,0,0,1.083-.975,4.437,4.437,0,0,1,3.925-3.925,1.091,1.091,0,0,0,.976-1.084V65.682A1.09,1.09,0,0,0,60.627,64.6Zm-1.2,13.47a6.649,6.649,0,0,0-4.709,4.709H19.728a6.647,6.647,0,0,0-4.709-4.709V66.587a6.647,6.647,0,0,0,4.709-4.709H54.714a6.649,6.649,0,0,0,4.709,4.709Zm-22.2-14.834a9.094,9.094,0,1,0,9.094,9.093A9.1,9.1,0,0,0,37.221,63.234Zm0,16.007a6.914,6.914,0,1,1,6.914-6.914A6.922,6.922,0,0,1,37.221,79.241Zm-1.342-8.866c0,.268,1.215.735,1.734.935,1.394.537,3.13,1.206,3.13,2.969a3.09,3.09,0,0,1-2.432,2.845V77.9a1.09,1.09,0,0,1-2.18,0v-.77a3.084,3.084,0,0,1-2.432-2.9,1.09,1.09,0,0,1,2.18,0c0,.414.513.862,1.342.862.768,0,1.342-.429,1.342-.814,0-.267-1.215-.735-1.734-.935-1.394-.537-3.13-1.2-3.13-2.969a3.09,3.09,0,0,1,2.432-2.844v-.775a1.09,1.09,0,0,1,2.18,0v.77a3.085,3.085,0,0,1,2.432,2.9,1.09,1.09,0,1,1-2.18,0c0-.415-.513-.862-1.342-.862C36.453,69.562,35.879,69.991,35.879,70.375Zm-9.108,1.952a1.09,1.09,0,0,1-1.09,1.09H18.45a1.09,1.09,0,0,1,0-2.18h7.231A1.09,1.09,0,0,1,26.771,72.327Zm29.221-1.09a1.09,1.09,0,0,1,0,2.18H48.761a1.09,1.09,0,1,1,0-2.18Z" fill="url(#gradient)"/>
</svg>