<svg width="95" height="84" viewBox="0 0 95 84" fill="none" xmlns="http://www.w3.org/2000/svg">
    <defs>
        <linearGradient id="gradient" x1="0" y1="0" x2="1" y2="0">
            <stop offset="0%" stop-color="#2AF598" />
            <stop offset="100%" stop-color="#009EFD" />
        </linearGradient>
    </defs>
<path id="Vector" d="M60.452 32.6667C64.96 32.6667 68.6187 36.3253 68.6187 40.8333V62.9953C68.6187 68.5661 66.4057 73.9087 62.4666 77.8479C58.5274 81.787 53.1848 84 47.614 84C42.0432 84 36.7006 81.787 32.7615 77.8479C28.8223 73.9087 26.6094 68.5661 26.6094 62.9953V40.8333C26.6094 36.3253 30.2634 32.6667 34.776 32.6667H60.452ZM60.452 39.6667H34.776C34.4666 39.6667 34.1699 39.7896 33.9511 40.0084C33.7323 40.2272 33.6094 40.5239 33.6094 40.8333V62.9953C33.6094 66.7096 35.0848 70.2717 37.7112 72.8981C40.3376 75.5245 43.8998 77 47.614 77C51.3283 77 54.8904 75.5245 57.5168 72.8981C60.1432 70.2717 61.6187 66.7096 61.6187 62.9953V40.8333C61.6187 40.5239 61.4958 40.2272 61.277 40.0084C61.0582 39.7896 60.7614 39.6667 60.452 39.6667ZM9.10002 32.6667H24.878C23.2316 34.6551 22.2261 37.0956 21.994 39.6667H9.10002C8.7906 39.6667 8.49385 39.7896 8.27506 40.0084C8.05627 40.2272 7.93335 40.5239 7.93335 40.8333V55.9953C7.93305 57.7588 8.33236 59.4994 9.10129 61.0864C9.87021 62.6734 10.9888 64.0655 12.3729 65.1581C13.757 66.2508 15.3708 67.0156 17.0929 67.3951C18.8151 67.7747 20.6008 67.759 22.316 67.3493C22.7127 69.7013 23.436 71.946 24.43 74.032C21.664 74.772 18.7648 74.8659 15.9567 74.3065C13.1486 73.747 10.5068 72.5493 8.2355 70.8058C5.96423 69.0623 4.12436 66.8198 2.85818 64.2517C1.59199 61.6836 0.933407 58.8586 0.93335 55.9953V40.8333C0.93335 36.3253 4.59202 32.6667 9.10002 32.6667ZM70.35 32.6667H86.1C90.608 32.6667 94.2667 36.3253 94.2667 40.8333V56C94.2673 58.8614 93.6101 61.6847 92.3458 64.2517C91.0816 66.8187 89.2441 69.0606 86.9753 70.8044C84.7066 72.5481 82.0673 73.7469 79.2615 74.3082C76.4556 74.8695 73.5583 74.7781 70.7934 74.0413C71.792 71.9507 72.5154 69.706 72.9167 67.354C74.6298 67.7589 76.4122 67.7708 78.1306 67.389C79.8489 67.0072 81.4586 66.2415 82.839 65.1493C84.2195 64.0571 85.3348 62.6667 86.1016 61.0822C86.8684 59.4977 87.2667 57.7603 87.2667 56V40.8333C87.2667 40.5239 87.1438 40.2272 86.925 40.0084C86.7062 39.7896 86.4094 39.6667 86.1 39.6667H73.234C73.0019 37.0956 71.9964 34.6551 70.35 32.6667ZM47.6 0C51.313 0 54.874 1.475 57.4995 4.10051C60.125 6.72601 61.6 10.287 61.6 14C61.6 17.713 60.125 21.274 57.4995 23.8995C54.874 26.525 51.313 28 47.6 28C43.887 28 40.326 26.525 37.7005 23.8995C35.075 21.274 33.6 17.713 33.6 14C33.6 10.287 35.075 6.72601 37.7005 4.10051C40.326 1.475 43.887 0 47.6 0ZM77.9334 4.66667C81.0275 4.66667 83.995 5.89583 86.1829 8.08375C88.3709 10.2717 89.6 13.2391 89.6 16.3333C89.6 19.4275 88.3709 22.395 86.1829 24.5829C83.995 26.7708 81.0275 28 77.9334 28C74.8392 28 71.8717 26.7708 69.6838 24.5829C67.4958 22.395 66.2667 19.4275 66.2667 16.3333C66.2667 13.2391 67.4958 10.2717 69.6838 8.08375C71.8717 5.89583 74.8392 4.66667 77.9334 4.66667ZM17.2667 4.66667C20.3609 4.66667 23.3283 5.89583 25.5163 8.08375C27.7042 10.2717 28.9334 13.2391 28.9334 16.3333C28.9334 19.4275 27.7042 22.395 25.5163 24.5829C23.3283 26.7708 20.3609 28 17.2667 28C14.1725 28 11.205 26.7708 9.0171 24.5829C6.82918 22.395 5.60002 19.4275 5.60002 16.3333C5.60002 13.2391 6.82918 10.2717 9.0171 8.08375C11.205 5.89583 14.1725 4.66667 17.2667 4.66667ZM47.6 7C45.7435 7 43.963 7.7375 42.6503 9.05025C41.3375 10.363 40.6 12.1435 40.6 14C40.6 15.8565 41.3375 17.637 42.6503 18.9497C43.963 20.2625 45.7435 21 47.6 21C49.4565 21 51.237 20.2625 52.5498 18.9497C53.8625 17.637 54.6 15.8565 54.6 14C54.6 12.1435 53.8625 10.363 52.5498 9.05025C51.237 7.7375 49.4565 7 47.6 7ZM77.9334 11.6667C76.6957 11.6667 75.5087 12.1583 74.6335 13.0335C73.7583 13.9087 73.2667 15.0957 73.2667 16.3333C73.2667 17.571 73.7583 18.758 74.6335 19.6332C75.5087 20.5083 76.6957 21 77.9334 21C79.171 21 80.358 20.5083 81.2332 19.6332C82.1084 18.758 82.6 17.571 82.6 16.3333C82.6 15.0957 82.1084 13.9087 81.2332 13.0335C80.358 12.1583 79.171 11.6667 77.9334 11.6667ZM17.2667 11.6667C16.029 11.6667 14.842 12.1583 13.9669 13.0335C13.0917 13.9087 12.6 15.0957 12.6 16.3333C12.6 17.571 13.0917 18.758 13.9669 19.6332C14.842 20.5083 16.029 21 17.2667 21C18.5044 21 19.6913 20.5083 20.5665 19.6332C21.4417 18.758 21.9334 17.571 21.9334 16.3333C21.9334 15.0957 21.4417 13.9087 20.5665 13.0335C19.6913 12.1583 18.5044 11.6667 17.2667 11.6667Z" fill="url(#gradient)"/>
</svg>
